<svg viewBox="0 0 500 560" xmlns="http://www.w3.org/2000/svg"><path d="m246.43 71.23c-12.29.75-53.78 4.85-88.3 38.48-39.39 38.38-41.83 88-42 100.05-1.1 62 39.81 107.54 80.73 153.07 21 23.32 41.57 42 54.79 52.43 14.82-10.09 35.07-28.18 57.05-51.58 33.08-35.24 85-90.55 79.89-163.33-.74-10.48-4.32-61.19-46.26-97.48-39.04-33.76-84.95-32.29-95.9-31.64z" fill="none" stroke="#e41e55" stroke-width="35.32"/><circle cx="252.39" cy="210.18" fill="none" r="71.03" stroke="#e41e55" stroke-width="31"/><path d="m247.3 229.12a27.49 27.49 0 0 1 -5.89-1.94 22.88 22.88 0 0 1 -4.94-3.07l4-7.13a19.37 19.37 0 0 0 6.11 3.36 21.94 21.94 0 0 0 7.13 1.18 12.52 12.52 0 0 0 6.56-1.44 4.5 4.5 0 0 0 2.33-4.05 4 4 0 0 0 -1-2.9 6.26 6.26 0 0 0 -2.71-1.58 33.15 33.15 0 0 0 -4.29-.91h-.17-.18l-.69-.1a42.8 42.8 0 0 1 -7.63-1.81 11.26 11.26 0 0 1 -5.14-3.82c-1.41-1.81-2.11-4.4-2.11-7.74a13.93 13.93 0 0 1 2-7.6 12.53 12.53 0 0 1 5.77-4.81 22.79 22.79 0 0 1 9.14-1.65 23.17 23.17 0 0 1 5 .57 27.07 27.07 0 0 1 5 1.63 28.76 28.76 0 0 1 4.67 2.59l-3.66 7.32a23.07 23.07 0 0 0 -5.54-2.84 16.76 16.76 0 0 0 -5.53-1 12 12 0 0 0 -6.15 1.31 4.06 4.06 0 0 0 -2.17 3.67 4.26 4.26 0 0 0 1.13 3.14 6.77 6.77 0 0 0 2.81 1.69 46.58 46.58 0 0 0 4.7 1.13l.25.05h.25a1.9 1.9 0 0 1 .36.08l.36.07a38.17 38.17 0 0 1 7.27 2.07 11.25 11.25 0 0 1 4.87 3.91 12.27 12.27 0 0 1 2 7.36v.07a13.33 13.33 0 0 1 -2.05 7.5 12.81 12.81 0 0 1 -6 4.76 24.47 24.47 0 0 1 -9.44 1.64 31.15 31.15 0 0 1 -6.42-.71z" fill="#de2764"/><g fill="#e41e55"><path d="m118.37 512.94a29.76 29.76 0 0 1 -6.39-2.11 24.33 24.33 0 0 1 -5.34-3.33l4.34-7.72a21 21 0 0 0 6.62 3.64 23.92 23.92 0 0 0 7.73 1.28 13.63 13.63 0 0 0 7.1-1.55 4.88 4.88 0 0 0 2.53-4.39 4.27 4.27 0 0 0 -1.13-3.14 6.61 6.61 0 0 0 -2.93-1.71 37.26 37.26 0 0 0 -4.65-1 .72.72 0 0 0 -.19 0h-.19l-.75-.1a46.5 46.5 0 0 1 -8.27-2 12.18 12.18 0 0 1 -5.57-4.13c-1.52-2-2.29-4.77-2.29-8.39a15.12 15.12 0 0 1 2.16-8.24 13.64 13.64 0 0 1 6.25-5.21 24.76 24.76 0 0 1 9.91-1.79 25.29 25.29 0 0 1 5.45.61 30.17 30.17 0 0 1 5.45 1.78 31.08 31.08 0 0 1 5 2.8l-4 7.93a25.09 25.09 0 0 0 -6-3.08 18.07 18.07 0 0 0 -6-1.09 12.93 12.93 0 0 0 -6.66 1.42 4.4 4.4 0 0 0 -2.36 4 4.62 4.62 0 0 0 1.23 3.4 7.36 7.36 0 0 0 3 1.83 46.91 46.91 0 0 0 5.09 1.23h.27l.28.05.39.09.39.08a42.41 42.41 0 0 1 7.88 2.24 12.36 12.36 0 0 1 5.28 4.24 13.37 13.37 0 0 1 2.12 8v.06a14.52 14.52 0 0 1 -2.23 8.14 13.91 13.91 0 0 1 -6.47 5.16 26.61 26.61 0 0 1 -10.23 1.77 34.24 34.24 0 0 1 -6.82-.77z"/><path d="m149.38 477.67h17.36v8h-17.36zm5.83 33.27q-2.18-2.38-2.17-7v-36.58h9.36v34.23a3.36 3.36 0 0 0 .51 2 1.73 1.73 0 0 0 1.5.7h2.33v9h-4.74q-4.63.02-6.79-2.35z"/><path d="m176.05 510.94q-2.82-2.71-2.82-8.25 0-5.26 3.16-7.9t9.48-2.63h8.88l.48 7.14h-9.32a5 5 0 0 0 -3.18.84 3 3 0 0 0 -1.06 2.55 2.8 2.8 0 0 0 1.33 2.57 7.69 7.69 0 0 0 4 .84 13.87 13.87 0 0 0 5.59-.85 2.81 2.81 0 0 0 1.83-2.67l.72 5.16a4.88 4.88 0 0 1 -1.76 3.25 10.28 10.28 0 0 1 -3.9 2 18.13 18.13 0 0 1 -4.94.66q-5.67 0-8.49-2.71zm18.4-20.28a4.6 4.6 0 0 0 -1.64-3.79 7.21 7.21 0 0 0 -4.65-1.34 12.45 12.45 0 0 0 -3.93.65 11.8 11.8 0 0 0 -3.45 1.81l-5.81-5.7a13.91 13.91 0 0 1 5.61-3.78 21.17 21.17 0 0 1 7.72-1.35 18.31 18.31 0 0 1 7.92 1.56 11.12 11.12 0 0 1 5 4.51 13.88 13.88 0 0 1 1.73 7.12v22.79h-8.51z"/><path d="m207.4 477.67h8.81l11.93 30.82-5.91 7.51zm32.76 0-15.78 43.77a11.28 11.28 0 0 1 -2.21 3.85 7.37 7.37 0 0 1 -3.24 2 15.92 15.92 0 0 1 -4.77.62h-2.08v-9.09h2.08a4.41 4.41 0 0 0 2.51-.67 4 4 0 0 0 1.52-2.17l13.16-38.34z"/><path d="m252.33 513.09a28.23 28.23 0 0 1 -5.64-1.66 20.84 20.84 0 0 1 -4.69-2.63l5.78-7.21a22.21 22.21 0 0 0 5.36 2.53 17.75 17.75 0 0 0 5.33.89 13.93 13.93 0 0 0 5.09-.74c1.21-.49 1.81-1.16 1.81-2a2.16 2.16 0 0 0 -.78-1.81 4.86 4.86 0 0 0 -2-.87 31.23 31.23 0 0 0 -3.45-.46l-1.25-.14-1.28-.14-.29-.05h-.29a39.13 39.13 0 0 1 -6.35-1.27 8.07 8.07 0 0 1 -4-2.89q-1.67-2.13-1.66-6.2a10 10 0 0 1 6.66-9.92 20.91 20.91 0 0 1 7.86-1.32 26.48 26.48 0 0 1 5.38.55 27.68 27.68 0 0 1 5.15 1.57 24.4 24.4 0 0 1 4.54 2.46l-5.57 6.8a22.52 22.52 0 0 0 -4.85-2 18.07 18.07 0 0 0 -4.85-.71 11.79 11.79 0 0 0 -4.41.65c-1.05.43-1.57 1-1.57 1.81a1.53 1.53 0 0 0 .84 1.38 6.19 6.19 0 0 0 2.08.72c.83.15 2 .31 3.64.49l.61.07.62.07a1.42 1.42 0 0 0 .31 0 1.36 1.36 0 0 1 .3 0 42.64 42.64 0 0 1 6.73 1.23 8.77 8.77 0 0 1 4.43 3q1.83 2.26 1.83 6.63a10.48 10.48 0 0 1 -7 10.34 22 22 0 0 1 -8.24 1.38 33.91 33.91 0 0 1 -6.18-.55z"/><path d="m336 485.36v9.71a20.51 20.51 0 0 1 -2.24 9.75 15.89 15.89 0 0 1 -6.34 6.53 19.12 19.12 0 0 1 -9.5 2.3 20.35 20.35 0 0 1 -9.58-2.17 15.44 15.44 0 0 1 -6.42-6.13 18.11 18.11 0 0 1 -2.28-9.19v-14.66a20.47 20.47 0 0 1 2.24-9.74 15.9 15.9 0 0 1 6.34-6.51 19.12 19.12 0 0 1 9.5-2.3 18.5 18.5 0 0 1 8.2 1.83 17.17 17.17 0 0 1 6.27 5.17 19.2 19.2 0 0 1 3.4 7.76h-10.08a6.55 6.55 0 0 0 -1.69-2.72 7.94 7.94 0 0 0 -2.77-1.74 9.18 9.18 0 0 0 -3.29-.6 8.59 8.59 0 0 0 -4.39 1.1 7.34 7.34 0 0 0 -2.94 3.1 10 10 0 0 0 -1 4.65v14.66a7.8 7.8 0 0 0 1.06 4.1 6.92 6.92 0 0 0 3 2.73 10.08 10.08 0 0 0 4.51 1 9.12 9.12 0 0 0 4.43-1 7.06 7.06 0 0 0 2.92-3 10.09 10.09 0 0 0 1-4.68v-.82h-7.51v-9z"/><path d="m352.18 511.38a15.82 15.82 0 0 1 -6.37-6.42 19.9 19.9 0 0 1 -2.26-9.62v-14.08a19.9 19.9 0 0 1 2.26-9.62 15.88 15.88 0 0 1 6.37-6.42 21.08 21.08 0 0 1 19 0 15.82 15.82 0 0 1 6.37 6.42 19.79 19.79 0 0 1 2.26 9.62v14.08a19.79 19.79 0 0 1 -2.26 9.62 15.75 15.75 0 0 1 -6.37 6.42 21.08 21.08 0 0 1 -19 0zm14-8.17a7.29 7.29 0 0 0 2.95-3 9.64 9.64 0 0 0 1.05-4.58v-14.63a9.67 9.67 0 0 0 -1.05-4.58 7.29 7.29 0 0 0 -2.95-3.05 9.69 9.69 0 0 0 -8.89 0 7.29 7.29 0 0 0 -2.95 3.05 9.67 9.67 0 0 0 -1 4.58v14.56a9.64 9.64 0 0 0 1 4.58 7.29 7.29 0 0 0 2.95 3 9.69 9.69 0 0 0 8.89 0z"/></g></svg>